  <svg xmlns="http://www.w3.org/2000/svg" width="231" height="137.66">
    <path
      style="fill: #2b3d4f; stroke: none"
      d="M25 41L25 99L58 99C62.5954 99 68.6309 97.9925 73 99.6034C78.1157 101.49 82.2455 107.245 86 111C95.2825 120.282 106.436 129.262 114 140L117 140C124.564 129.262 135.718 120.282 145 111C148.755 107.245 152.884 101.49 158 99.6034C162.369 97.9925 168.405 99 173 99L206 99L206 41L171 41C166.035 41 159.383 42.1639 155 39.3966C144.593 32.8268 135.694 20.6941 127 12C124.177 9.17657 119.429 2.28673 115 2.34567C110.546 2.40495 105.853 9.14688 103 12C94.3055 20.694 85.407 32.8267 75 39.3966C70.8239 42.033 64.7246 41 60 41L25 41z" />
    <text fill="#21b899" x="58" y="80" font-family="'Comic Sans MS'" font-size="34">setupin</text>
    <path
      style="fill: #f2fbf9; stroke: none"
      d="M115 7C104.443 17.557 91.5993 27.7923 83 40C86.4725 40 90.6915 40.6165 94 39.3966C101.585 36.5999 110.439 25.4748 115 19C121.119 25.1192 128.774 36.3637 137 39.3966C140.309 40.6165 144.528 40 148 40C143.546 33.6776 137.46 28.4599 132 23C126.54 17.5401 121.322 11.4536 115 7z" />
    <path
      style="fill: #21b899; stroke: none"
      d="M97 40L134 40C131.415 34.4563 126.392 30.2125 122 26.0193C120.359 24.453 118.407 22.2053 116 21.9213C113.163 21.5866 110.838 24.2646 109 26.0193C104.608 30.2125 99.5852 34.4563 97 40z" />
    <path
      style="fill: #21b899; stroke: none"
      d="M97 100C99.5852 105.544 104.608 109.787 109 113.981C110.838 115.735 113.163 118.413 116 118.079C118.804 117.748 121.125 114.834 123 112.995C127.208 108.869 131.603 104.822 135 100L97 100z" />
    <path
      style="fill: #f2fbf9; stroke: none"
      d="M84 101C92.3411 112.841 104.761 122.761 115 133C120.952 128.807 125.86 123.14 131 118C136.46 112.54 142.546 107.322 147 101C143.527 101 139.309 100.384 136 101.603C128.696 104.296 120.386 114.773 116 121C110.137 115.137 102.89 104.512 95 101.603C91.6915 100.384 87.4725 101 84 101z" />
  </svg>